<?xml version="1.0" encoding="UTF-8"?>
<svg id="Layer_1" data-name="Layer 1" xmlns="http://www.w3.org/2000/svg" viewBox="0 0 532.02 403.67">
  <defs>
    <style>
      .cls-1 {
        fill: #fff;
      }

      .cls-2 {
        fill: none;
        stroke: #fff;
        stroke-miterlimit: 10;
      }
    </style>
  </defs>
  <path class="cls-2" d="m190.82,241.79c0,3.8-1.1,7.49-3.31,11.06-5.93,9.35-14.4,14.02-25.42,14.02-5.17,0-11.51-1.03-19.04-3.08-4.26-1.06-7.49-1.82-9.69-2.28-.99-.3-2.17-.46-3.53-.46-2.74,0-5.28.95-7.64,2.85-.61.46-1.18.68-1.71.68-.46,0-.8-.15-1.03-.46-1.67-2.35-2.51-4.86-2.51-7.52,0-1.37.27-2.96.8-4.79,1.37-4.41,4.67-7.11,9.92-8.09,1.98-.3,3.46-.46,4.45-.46,4.94,0,9.54,1.67,13.79,5.02,3.27,2.66,6.19,5.17,8.78,7.52l1.71,1.6c1.67,1.52,2.92,2.62,3.76,3.31,1.9,1.6,4.37,2.39,7.41,2.39,1.75,0,3.31-.46,4.67-1.37,1.37-.91,2.39-2.2,3.08-3.88.61-1.44.91-3.04.91-4.79,0-1.37-.19-2.62-.57-3.76-.15-.68-.53-1.48-1.14-2.39-.61-.91-1.22-1.67-1.82-2.28-1.14-1.06-2.34-1.94-3.59-2.62s-2.55-1.31-3.88-1.88c-1.33-.57-2.26-.97-2.79-1.2-2.05-.99-4.26-1.71-6.61-2.17-5.4-1.14-10.94-2.17-16.64-3.08-4.18-.76-7.56-2.09-10.15-3.99-1.82-1.29-3.19-2.47-4.1-3.53-3.19-4.18-5.13-8.89-5.81-14.14-.15-1.21-.23-2.17-.23-2.85,0-4.63,1.78-8.85,5.36-12.65,3.12-3.27,6.46-5.76,10.03-7.47,3.57-1.71,7.56-2.64,11.97-2.79,8.21-.23,16.91.65,26.11,2.62,2.81.61,5.43.91,7.87.91,1.82,0,3.15-.04,3.99-.11.61-.08,1.39-.17,2.34-.29.95-.11,1.8-.13,2.56-.06.3.08.46.27.46.57-.15.53-.55,1.18-1.2,1.94-.65.76-1.01,1.22-1.08,1.37l-3.99,4.45c-2.89,3.19-5.62,6-8.21,8.44-.15.15-.46.48-.91.97-.46.5-.88.74-1.25.74-.46,0-1.18-.49-2.17-1.48l-2.51-3.08c-1.07-1.37-2.13-2.66-3.19-3.88-2.89-3.04-5.32-5.28-7.3-6.73-2.36-1.67-4.98-2.51-7.87-2.51-3.27,0-6.16,1.14-8.66,3.42-1.98,1.82-2.96,3.88-2.96,6.16,0,.38.07,1.03.23,1.94.38,2.13,1.25,3.69,2.62,4.67,1.82,1.29,3.19,2.17,4.1,2.62,6.46,3.42,12.35,5.66,17.67,6.73,4.56.84,8.66,2.13,12.31,3.88,6,2.58,10.45,6.88,13.34,12.88,1.52,2.96,2.28,6.08,2.28,9.35Z"/>
  <path class="cls-2" d="m276.32,202.01c0,2.81-.3,5.32-.91,7.52-.38,1.82-.76,3.38-1.14,4.67-.99,4.41-1.75,7.52-2.28,9.35-1.29,4.48-1.94,9.39-1.94,14.71.08,4.48.11,11.13.11,19.95,0,1.82-.04,3.19-.11,4.1v.57c0,.91-.3,1.48-.91,1.71-.08,0-.23.06-.46.17-.23.11-.46.17-.68.17l-24.97.23c-1.22,0-1.71-.42-1.48-1.25.23-.76.57-1.41,1.03-1.94,1.06-1.44,1.67-2.74,1.82-3.88,0-.15.06-.44.17-.85.11-.42.06-.66-.17-.74h-.34c-.53,0-.87.04-1.03.11l-3.19,1.48c-5.02,2.43-8.78,4.18-11.29,5.24-2.74,1.22-5.63,1.82-8.66,1.82-2.58,0-5.21-.46-7.87-1.37-3.19-1.06-5.47-3.12-6.84-6.16-1.98-4.18-2.96-8.82-2.96-13.91,0-6.91,1.1-13.79,3.31-20.63.91-3.04,1.65-6.16,2.22-9.35s1.08-6.91,1.54-11.17c.07-.61.11-1.52.11-2.74,0-1.67-.04-2.92-.11-3.76-.08-.46-.17-1.2-.29-2.22-.11-1.03-.28-1.92-.51-2.68-.08-.3-.44-.93-1.08-1.88-.65-.95-.89-1.69-.74-2.22v-.11c.38-.53,1.67-.8,3.88-.8,8.13,0,14.21-.07,18.24-.23,1.14-.07,1.96.04,2.45.34.49.3,1.01.95,1.54,1.94,1.67,3.19,2.51,6.23,2.51,9.12,0,4.1-1.37,8.09-4.1,11.97-1.44,2.05-3.08,4.07-4.9,6.04-1.82,1.98-2.89,3.12-3.19,3.42-3.35,3.57-6.77,8.06-10.26,13.45-1.44,2.28-2.51,4.77-3.19,7.47-.68,2.7-1.18,5.72-1.48,9.06v.57c.15,3.57,1.1,6.38,2.85,8.44,1.75,2.05,4.14,3.08,7.18,3.08,1.44,0,3.15-.3,5.13-.91,4.18-1.29,7.98-3.61,11.4-6.95,5.24-5.32,9.42-11.86,12.54-19.61,2.66-6.99,4.48-13.68,5.47-20.06.3-1.75.46-3.72.46-5.93,0-2.81-.34-5.59-1.03-8.32-.61-2.43-1.52-4.63-2.74-6.61-.23-.38-.8-1.18-1.71-2.39-.91-1.21-1.37-2.17-1.37-2.85s.61-1.03,1.82-1.03c4.79-.07,11.93-.11,21.43-.11,1.6,0,2.66.19,3.19.57.53.38,1.03,1.33,1.48,2.85,1.37,4.48,2.05,8.66,2.05,12.54Z"/>
  <path class="cls-2" d="m356.35,192.89c1.44,2.13,2.17,4.52,2.17,7.18,0,5.47-2.09,10.11-6.27,13.91-5.09,4.64-11.21,7.83-18.35,9.58l-4.79,1.25c-2.96.68-5.06,1.22-6.27,1.6-2.81.91-5.24,1.98-7.3,3.19-3.35,1.98-5.02,4.71-5.02,8.21l-.11,17.67.11,5.24v1.25c0,.91-.08,1.56-.23,1.94-.3.91-1.06,1.37-2.28,1.37-.61,0-1.33-.04-2.17-.11-.84-.07-1.52-.07-2.05,0h-4.79l-9.58.23c-.68,0-1.14-.34-1.37-1.03s-.34-1.41-.34-2.17c-.08-1.75-.06-3.71.06-5.87.11-2.17.17-3.67.17-4.5.15-3.95.23-6.92.23-8.89,0-2.81-.08-7.18-.23-13.11-.08-4.26-.11-10.64-.11-19.15v-19.15l-.11-2.05c0-1.44.19-2.39.57-2.85h.11c.3-.3,1.06-.44,2.28-.4,1.21.04,2.05.06,2.51.06l30.32-.46,3.53-.11c3.19-.15,5.51-.23,6.95-.23,3.95,0,7.45.3,10.49.91.38.08,1.18.25,2.39.51,1.21.27,2.32.63,3.31,1.08,2.66,1.14,4.71,2.77,6.16,4.9Zm-23.37,10.03c0-2.05-.65-3.93-1.94-5.64-1.29-1.71-3.08-3.02-5.36-3.93-.3-.07-.65-.19-1.03-.34-.38-.15-.84-.27-1.37-.34-3.95-.61-7.52-.87-10.72-.8-.15,0-.51.04-1.08.11-.57.08-.97.19-1.2.34-.3.23-.51.55-.63.97-.11.42-.17.97-.17,1.65-.15,1.07-.23,2.66-.23,4.79,0,.68.02,1.56.06,2.62.04,1.07.02,2.32-.06,3.76-.15,3.95-.23,9.88-.23,17.78,0,1.22.3,1.82.91,1.82.53,0,1.29-.38,2.28-1.14l5.93-4.45c3.95-2.89,6.88-5.09,8.78-6.61,1.6-1.29,2.85-2.62,3.76-3.99,1.52-2.2,2.28-4.41,2.28-6.61Z"/>
  <path class="cls-2" d="m438.31,263.57c0,.99-.08,1.75-.23,2.28-.08.53-.34.8-.8.8-.23,0-.46-.04-.68-.11-.23-.08-.42-.15-.57-.23l-2.39-.68c-5.47-2.28-11.44-3.49-17.9-3.65l-3.42-.11c-5.02,0-11.67.57-19.95,1.71-6.84.91-13.76,1.71-20.75,2.39h-.34c-.91,0-1.37-.46-1.37-1.37,0-.53.19-1.06.57-1.6,3.12-4.86,4.67-10.64,4.67-17.33,0-2.05-.11-4.1-.34-6.16-.76-5.7-1.86-12.39-3.31-20.06-1.06-5.85-1.6-10.94-1.6-15.28,0-2.05.28-4.05.85-5.99.57-1.94,1.39-4.08,2.45-6.44,1.52-2.96,3.99-4.75,7.41-5.36,2.13-.46,4.83-.68,8.09-.68,7.07,0,13.6.68,19.61,2.05,3.57.84,6.69,1.33,9.35,1.48.76.08,1.9.11,3.42.11,2.05,0,3.84-.15,5.36-.46,1.52-.23,2.89-.68,4.1-1.37.46-.23,1.14-.65,2.05-1.25.07-.07.28-.28.63-.63.34-.34.66-.4.97-.17.08.08.17.34.29.8.11.46.21.76.29.91.23.68.47,1.52.74,2.51.27.99.47,1.71.63,2.17l.46,2.28c.61,2.58.99,4.52,1.14,5.81,0,.23.07.78.23,1.65.15.88.23,1.69.23,2.45,0,1.37-.27,2.24-.8,2.62-.3.3-.68.57-1.14.8-1.07.61-1.86.99-2.39,1.14-.99.38-1.98.63-2.96.74-.99.11-2.24.17-3.76.17-7.22,0-13.79-1.67-19.72-5.02-2.05-1.06-4.56-2.66-7.52-4.79l-2.85-1.94c-2.51-1.67-3.92-2.62-4.22-2.85-2.89-1.98-5.09-3.42-6.61-4.33-1.29-.76-2.55-1.14-3.76-1.14-1.37,0-2.57.48-3.59,1.42-1.03.95-1.69,2.26-2,3.93-.15.91-.23,1.67-.23,2.28,0,.91.11,1.79.34,2.62.99,3.42,2.05,6,3.19,7.75l3.42,5.02c3.19,4.41,5.43,7.83,6.73,10.26l.91,1.82c.08.08.17.27.29.57.11.3.25.51.4.63.15.11.34.17.57.17.38,0,.82-.07,1.31-.23.49-.15.86-.27,1.08-.34l5.47-2.05c1.98-.76,3.46-1.37,4.45-1.82l6.38-2.51c.23-.07,1.21-.47,2.96-1.2,1.75-.72,2.77-.78,3.08-.17.08.15.11.5.11,1.03,0,.91-.11,2.26-.34,4.05-.23,1.79-.38,2.95-.46,3.48-.46,3.04-.84,5.47-1.14,7.3-.08.23-.15.61-.23,1.14-.08.53-.3.8-.68.8s-.78-.27-1.2-.8c-.42-.53-.78-.91-1.08-1.14-1.07-.84-2.13-1.52-3.19-2.05-2.13-1.14-4.52-1.82-7.18-2.05-.53,0-1.24-.02-2.11-.06-.87-.04-1.65-.02-2.34.06-.61,0-1.31.11-2.11.34-.8.23-1.24.53-1.31.91v.23c0,.3.11.91.34,1.82l1.14,4.56c.76,3.19,1.25,5.59,1.48,7.18.23,1.52.34,3.88.34,7.07v7.52c.3,0,.67.02,1.08.06.42.04.89.02,1.43-.06l3.19-.57c6.38-1.06,11.21-1.98,14.48-2.74,5.7-1.29,10.75-3.65,15.16-7.07.3-.23.8-.61,1.48-1.14.68-.53,1.37-.91,2.05-1.14.91-.23,1.52-.19,1.82.11.23.23.34.68.34,1.37v15.73Z"/>
  <path class="cls-2" d="m531.17,264.99c.34.42.44.74.29.97-.38.46-1.82.89-4.33,1.31-2.51.42-4.6.66-6.27.74-4.1.15-7.98-.34-11.63-1.48-1.75-.53-3.23-1.63-4.45-3.31-1.22-1.67-2.66-3.99-4.33-6.95-.3-.53-.93-1.65-1.88-3.36-.95-1.71-1.9-3.25-2.85-4.62-.95-1.37-1.92-2.58-2.91-3.65-.99-1.14-2.09-2.13-3.31-2.96-1.22-.84-2.78-1.82-4.67-2.96-.3-.15-1.01-.55-2.11-1.2-1.1-.64-2.07-1.33-2.91-2.05-.84-.72-1.48-1.5-1.94-2.34-.46-.91-.68-1.86-.68-2.85,0-1.9.72-3.65,2.17-5.24.53-.53,1.41-1.25,2.62-2.17l1.82-1.37,2.17-1.6c2.43-1.82,4.14-3.23,5.13-4.22,2.58-2.58,3.88-5.62,3.88-9.12,0-1.75-.27-3.31-.8-4.67-1.22-3.19-3.42-5.36-6.61-6.5-3.04-1.21-6.16-1.82-9.35-1.82-.61,0-1.6.08-2.96.23-1.22.15-1.98.63-2.28,1.42-.3.8-.46,1.42-.46,1.88v65.32c0,1.29-.17,2.21-.51,2.74-.34.53-1.12.84-2.34.91-6.69.15-11.67.23-14.93.23-2.21,0-3.59-.19-4.16-.57-.57-.38-.85-1.41-.85-3.08l.11-7.98c.15-5.77.23-10.03.23-12.77v-8.09c0-10.94-.04-19.15-.11-24.62v-12.54l-.11-5.13c0-1.9.15-3.13.46-3.71.3-.57.95-.85,1.94-.85,2.13,0,4.33.11,6.61.34.76.08,1.67.15,2.74.23,1.06.08,2.32.11,3.76.11,4.41-.07,8.25-.19,11.51-.34,3.27-.15,5.97-.27,8.09-.34l9.8-.34c5.55-.15,10.03.27,13.45,1.25,2.13.61,3.69,1.18,4.67,1.71,2.51,1.29,4.43,3.12,5.76,5.47,1.33,2.36,2,4.94,2,7.75,0,1.67-.19,3.19-.57,4.56-1.37,5.24-4.03,8.89-7.98,10.94-2.21,1.14-4.67,2.09-7.41,2.85-1.29.3-2.17.5-2.62.57-1.37.3-3.92.8-7.64,1.48-.76.15-1.67.29-2.74.4-1.07.11-1.9.21-2.51.28-.3.08-1.01.17-2.11.29-1.1.11-2,.44-2.68.97l-.57.46c-.08.15-.11.38-.11.68,0,.53.15.91.46,1.14.3.23.84.34,1.6.34h3.08c.3,0,.76-.02,1.37-.06.61-.04,1.14-.02,1.6.06l3.19.34c.68.08,1.27.19,1.77.34.49.15.93.27,1.31.34,6.16,1.52,11.17,4.07,15.05,7.64,2.2,1.98,3.88,4.09,5.02,6.33,1.14,2.24,2.58,5.57,4.33,9.98.91,2.74,1.75,4.75,2.51,6.04.53.91,1.25,1.79,2.17,2.62.91.84,1.82,1.6,2.74,2.28.53.46.97.89,1.31,1.31Z"/>
  <path class="cls-1" d="m190.82,378.59c0,3.8-1.1,7.49-3.31,11.06-5.93,9.35-14.4,14.02-25.42,14.02-5.17,0-11.51-1.03-19.04-3.08-4.26-1.06-7.49-1.82-9.69-2.28-.99-.3-2.17-.46-3.53-.46-2.74,0-5.28.95-7.64,2.85-.61.46-1.18.68-1.71.68-.46,0-.8-.15-1.03-.46-1.67-2.35-2.51-4.86-2.51-7.52,0-1.37.27-2.96.8-4.79,1.37-4.41,4.67-7.11,9.92-8.09,1.98-.3,3.46-.46,4.45-.46,4.94,0,9.54,1.67,13.79,5.02,3.27,2.66,6.19,5.17,8.78,7.52l1.71,1.6c1.67,1.52,2.92,2.62,3.76,3.31,1.9,1.6,4.37,2.39,7.41,2.39,1.75,0,3.31-.46,4.67-1.37,1.37-.91,2.39-2.2,3.08-3.88.61-1.44.91-3.04.91-4.79,0-1.37-.19-2.62-.57-3.76-.15-.68-.53-1.48-1.14-2.39-.61-.91-1.22-1.67-1.82-2.28-1.14-1.06-2.34-1.94-3.59-2.62-1.25-.68-2.55-1.31-3.88-1.88-1.33-.57-2.26-.97-2.79-1.2-2.05-.99-4.26-1.71-6.61-2.17-5.4-1.14-10.94-2.17-16.64-3.08-4.18-.76-7.56-2.09-10.15-3.99-1.82-1.29-3.19-2.47-4.1-3.53-3.19-4.18-5.13-8.89-5.81-14.14-.15-1.21-.23-2.17-.23-2.85,0-4.63,1.78-8.85,5.36-12.65,3.12-3.27,6.46-5.76,10.03-7.47,3.57-1.71,7.56-2.64,11.97-2.79,8.21-.23,16.91.65,26.11,2.62,2.81.61,5.43.91,7.87.91,1.82,0,3.15-.04,3.99-.11.61-.08,1.39-.17,2.34-.29.95-.11,1.8-.13,2.56-.06.3.08.46.27.46.57-.15.53-.55,1.18-1.2,1.94-.65.76-1.01,1.22-1.08,1.37l-3.99,4.45c-2.89,3.19-5.62,6-8.21,8.44-.15.15-.46.48-.91.97-.46.5-.88.74-1.25.74-.46,0-1.18-.49-2.17-1.48l-2.51-3.08c-1.07-1.37-2.13-2.66-3.19-3.88-2.89-3.04-5.32-5.28-7.3-6.73-2.36-1.67-4.98-2.51-7.87-2.51-3.27,0-6.16,1.14-8.66,3.42-1.98,1.82-2.96,3.88-2.96,6.16,0,.38.07,1.03.23,1.94.38,2.13,1.25,3.69,2.62,4.67,1.82,1.29,3.19,2.17,4.1,2.62,6.46,3.42,12.35,5.66,17.67,6.73,4.56.84,8.66,2.13,12.31,3.88,6,2.58,10.45,6.88,13.34,12.88,1.52,2.96,2.28,6.08,2.28,9.35Z"/>
  <path class="cls-1" d="m276.32,338.81c0,2.81-.3,5.32-.91,7.52-.38,1.82-.76,3.38-1.14,4.67-.99,4.41-1.75,7.52-2.28,9.35-1.29,4.49-1.94,9.39-1.94,14.71.08,4.49.11,11.13.11,19.95,0,1.82-.04,3.19-.11,4.1v.57c0,.91-.3,1.48-.91,1.71-.08,0-.23.06-.46.17-.23.11-.46.17-.68.17l-24.97.23c-1.22,0-1.71-.42-1.48-1.25.23-.76.57-1.41,1.03-1.94,1.06-1.44,1.67-2.74,1.82-3.88,0-.15.06-.44.17-.85.11-.42.06-.66-.17-.74h-.34c-.53,0-.87.04-1.03.11l-3.19,1.48c-5.02,2.43-8.78,4.18-11.29,5.24-2.74,1.22-5.63,1.82-8.66,1.82-2.58,0-5.21-.46-7.87-1.37-3.19-1.06-5.47-3.12-6.84-6.16-1.98-4.18-2.96-8.81-2.96-13.91,0-6.92,1.1-13.79,3.31-20.63.91-3.04,1.65-6.16,2.22-9.35.57-3.19,1.08-6.92,1.54-11.17.07-.61.11-1.52.11-2.74,0-1.67-.04-2.92-.11-3.76-.08-.46-.17-1.2-.29-2.22-.11-1.03-.28-1.92-.51-2.68-.08-.3-.44-.93-1.08-1.88-.65-.95-.89-1.69-.74-2.22v-.11c.38-.53,1.67-.8,3.88-.8,8.13,0,14.21-.07,18.24-.23,1.14-.07,1.96.04,2.45.34.49.3,1.01.95,1.54,1.94,1.67,3.19,2.51,6.23,2.51,9.12,0,4.1-1.37,8.09-4.1,11.97-1.44,2.05-3.08,4.07-4.9,6.04-1.82,1.98-2.89,3.12-3.19,3.42-3.35,3.57-6.77,8.06-10.26,13.45-1.44,2.28-2.51,4.77-3.19,7.47-.68,2.7-1.18,5.72-1.48,9.06v.57c.15,3.57,1.1,6.38,2.85,8.44,1.75,2.05,4.14,3.08,7.18,3.08,1.44,0,3.15-.3,5.13-.91,4.18-1.29,7.98-3.61,11.4-6.95,5.24-5.32,9.42-11.86,12.54-19.61,2.66-6.99,4.48-13.68,5.47-20.06.3-1.75.46-3.72.46-5.93,0-2.81-.34-5.59-1.03-8.32-.61-2.43-1.52-4.63-2.74-6.61-.23-.38-.8-1.18-1.71-2.39-.91-1.21-1.37-2.17-1.37-2.85s.61-1.03,1.82-1.03c4.79-.07,11.93-.11,21.43-.11,1.6,0,2.66.19,3.19.57.53.38,1.03,1.33,1.48,2.85,1.37,4.48,2.05,8.66,2.05,12.54Z"/>
  <path class="cls-1" d="m366.15,368.33c1.52,3.04,2.28,6.27,2.28,9.69,0,2.36-.4,4.62-1.2,6.78-.8,2.17-1.96,4.05-3.48,5.64-6.69,6.69-14.1,10.34-22.23,10.94-4.64.38-11.44.72-20.41,1.03-1.6.08-4.07.04-7.41-.11l-2.51-.11-12.31-.34c-.61-.07-1.39-.07-2.34,0-.95.08-1.77.11-2.45.11-1.75,0-3.27-.27-4.56-.8-.15,0-.3-.08-.46-.23-.91-.61-1.37-1.67-1.37-3.19,0-.68.06-1.33.17-1.94.11-.61.17-1.21.17-1.82l.11-9.92v-19.84c0-9.73-.04-17.02-.11-21.89v-11.06l-.11-4.45c0-1.75.17-2.87.51-3.36.34-.49.97-.74,1.88-.74,1.29,0,3.31.08,6.04.23,1.98.23,3.95.34,5.93.34,3.65,0,9.19-.15,16.64-.46,1.82-.08,4.1-.15,6.84-.23,2.74-.08,5.93-.11,9.58-.11,4.18,0,7.79.34,10.83,1.03,2.13.61,3.69,1.14,4.67,1.6,2.43,1.14,4.33,2.76,5.7,4.85,1.37,2.09,2.05,4.39,2.05,6.9,0,1.14-.19,2.47-.57,3.99-1.29,4.48-3.95,7.71-7.98,9.69-2.89,1.37-6.23,2.36-10.03,2.96l-13.22,2.28c-1.75.23-3.08.48-3.99.74-.91.27-1.75.74-2.51,1.42-.46.46-.68.99-.68,1.6,0,.46.15.82.46,1.08.3.27.72.36,1.25.29,1.9-.3,3.49-.68,4.79-1.14,5.09-1.67,10.45-2.51,16.07-2.51,2.05,0,4.1.11,6.16.34,3.95.3,7.68,1.52,11.17,3.65,2.89,1.67,5.09,4.03,6.61,7.07Zm-16.3,15.5c0-1.6-.38-3.12-1.14-4.56-.76-1.44-1.82-2.7-3.19-3.76-2.51-1.9-5.09-2.89-7.75-2.96-1.98-.15-3.46-.19-4.45-.11-3.65.23-7.37-.46-11.17-2.05-1.75-.61-3.31-1.52-4.67-2.74-1.98-1.75-2.96-3.61-2.96-5.59s.95-3.84,2.85-5.59c.61-.61,1.41-1.21,2.39-1.82.99-.61,1.71-1.06,2.17-1.37l2.62-1.82c2.13-1.37,3.69-2.47,4.67-3.31,2.51-2.28,3.76-4.98,3.76-8.09,0-1.44-.27-2.81-.8-4.1-1.14-2.74-3.31-4.67-6.5-5.81-3.19-.99-6.35-1.48-9.46-1.48-1.29,0-2.24.04-2.85.11-1.14.15-1.9.65-2.28,1.48-.38.84-.57,1.94-.57,3.31,0,2.74-.08,6.77-.23,12.08-.15,8.51-.23,14.86-.23,19.04v7.07c0,2.89.07,7.22.23,13,0,2.81.04,4.9.11,6.27,0,1.82.04,3.19.11,4.1,0,.68.04,1.22.11,1.6,0,.3.11.57.34.8.3.3.85.48,1.65.51.8.04,1.35.06,1.65.06,7.3,0,12.77.08,16.42.23,6.08.23,11.59-2.39,16.53-7.87,1.75-1.98,2.62-4.18,2.62-6.61Z"/>
  <path class="cls-1" d="m453.71,378.59c0,3.8-1.1,7.49-3.31,11.06-5.93,9.35-14.4,14.02-25.42,14.02-5.17,0-11.51-1.03-19.04-3.08-4.26-1.06-7.49-1.82-9.69-2.28-.99-.3-2.17-.46-3.53-.46-2.74,0-5.28.95-7.64,2.85-.61.46-1.18.68-1.71.68-.46,0-.8-.15-1.03-.46-1.67-2.35-2.51-4.86-2.51-7.52,0-1.37.27-2.96.8-4.79,1.37-4.41,4.67-7.11,9.92-8.09,1.97-.3,3.46-.46,4.45-.46,4.94,0,9.54,1.67,13.79,5.02,3.27,2.66,6.19,5.17,8.78,7.52l1.71,1.6c1.67,1.52,2.93,2.62,3.76,3.31,1.9,1.6,4.37,2.39,7.41,2.39,1.75,0,3.3-.46,4.67-1.37,1.37-.91,2.39-2.2,3.08-3.88.61-1.44.91-3.04.91-4.79,0-1.37-.19-2.62-.57-3.76-.15-.68-.53-1.48-1.14-2.39-.61-.91-1.22-1.67-1.82-2.28-1.14-1.06-2.34-1.94-3.59-2.62-1.26-.68-2.55-1.31-3.88-1.88-1.33-.57-2.26-.97-2.79-1.2-2.05-.99-4.26-1.71-6.61-2.17-5.4-1.14-10.95-2.17-16.64-3.08-4.18-.76-7.56-2.09-10.15-3.99-1.82-1.29-3.19-2.47-4.1-3.53-3.19-4.18-5.13-8.89-5.81-14.14-.15-1.21-.23-2.17-.23-2.85,0-4.63,1.78-8.85,5.36-12.65,3.12-3.27,6.46-5.76,10.03-7.47,3.57-1.71,7.56-2.64,11.97-2.79,8.21-.23,16.91.65,26.11,2.62,2.81.61,5.43.91,7.87.91,1.82,0,3.15-.04,3.99-.11.61-.08,1.39-.17,2.34-.29.95-.11,1.8-.13,2.56-.06.3.08.46.27.46.57-.15.53-.55,1.18-1.2,1.94-.65.76-1.01,1.22-1.08,1.37l-3.99,4.45c-2.89,3.19-5.62,6-8.21,8.44-.15.15-.46.48-.91.97-.46.5-.88.74-1.25.74-.46,0-1.18-.49-2.17-1.48l-2.51-3.08c-1.07-1.37-2.13-2.66-3.19-3.88-2.89-3.04-5.32-5.28-7.29-6.73-2.36-1.67-4.98-2.51-7.87-2.51-3.27,0-6.16,1.14-8.66,3.42-1.98,1.82-2.96,3.88-2.96,6.16,0,.38.07,1.03.23,1.94.38,2.13,1.25,3.69,2.62,4.67,1.82,1.29,3.19,2.17,4.1,2.62,6.46,3.42,12.35,5.66,17.67,6.73,4.56.84,8.66,2.13,12.31,3.88,6,2.58,10.45,6.88,13.34,12.88,1.52,2.96,2.28,6.08,2.28,9.35Z"/>
</svg>